<svg aria-hidden="true" style="position: absolute; width: 0; height: 0; overflow: hidden;" version="1.1" xmlns="http://www.w3.org/2000/svg" xmlns:xlink="http://www.w3.org/1999/xlink">
<defs>
<symbol id="icon-heart-active" viewBox="0 0 32 32">
<path fill="#3470ff" style="fill: var(--color1, #3470ff); stroke: var(--color1, #3470ff)" stroke="#3470ff" stroke-linejoin="round" stroke-linecap="round" stroke-miterlimit="4" stroke-width="1.7778" d="M27.787 6.147c-0.681-0.681-1.49-1.222-2.38-1.591s-1.844-0.559-2.807-0.559c-0.963 0-1.917 0.19-2.807 0.559s-1.698 0.909-2.38 1.591l-1.413 1.413-1.413-1.413c-1.376-1.376-3.241-2.148-5.187-2.148s-3.811 0.773-5.187 2.148c-1.376 1.376-2.148 3.241-2.148 5.187s0.773 3.811 2.148 5.187l11.787 11.787 11.787-11.787c0.681-0.681 1.222-1.49 1.591-2.38s0.559-1.844 0.559-2.807c0-0.963-0.19-1.917-0.559-2.807s-0.909-1.699-1.591-2.38z"></path>
</symbol>
<symbol id="icon-heart-normal" viewBox="0 0 32 32">
<path fill="none" stroke="#fff" style="stroke: var(--color2, #fff)" stroke-linejoin="round" stroke-linecap="round" stroke-miterlimit="4" stroke-width="2.6667" d="M27.787 6.147c-0.681-0.681-1.49-1.222-2.38-1.591s-1.844-0.559-2.807-0.559c-0.963 0-1.917 0.19-2.807 0.559s-1.698 0.909-2.38 1.591l-1.413 1.413-1.413-1.413c-1.376-1.376-3.241-2.148-5.187-2.148s-3.811 0.773-5.187 2.148c-1.376 1.376-2.148 3.241-2.148 5.187s0.773 3.811 2.148 5.187l11.787 11.787 11.787-11.787c0.681-0.681 1.222-1.49 1.591-2.38s0.559-1.844 0.559-2.807c0-0.963-0.19-1.917-0.559-2.807s-0.909-1.699-1.591-2.38z"></path>
</symbol>
<symbol id="no-car-icon" viewBox="0 0 32 32">
<path fill="#fff" style="fill: var(--color4, #fff)" d="M6.25 7.651l18.096 18.109c-2.227 1.906-5.142 3.066-8.327 3.066-7.092 0-12.841-5.749-12.841-12.841 0-3.189 1.162-6.106 3.087-8.352l-0.014 0.017zM26.479 23.438l-17.906-17.917c2.064-1.482 4.641-2.369 7.426-2.369 3.547 0 6.757 1.44 9.079 3.767l0 0c2.324 2.312 3.763 5.512 3.763 9.049 0 0.011 0 0.023-0 0.034v-0.002c0 0.009 0 0.020 0 0.031 0 2.777-0.885 5.347-2.388 7.444l0.026-0.038z"></path>
<path fill="#000" style="fill: var(--color3, #000)" d="M8.435 15.531c-1.513-0.781-1.336-1.646 0.18-1.563l0.346 0.646 0.69-3.24c0.227-0.721 0.583-1.393 1.214-1.591 0-0.063 9.474-0.219 10.396-0.060 0.898 0 1.417 0.781 1.633 1.654l0.521 3.172 0.302-0.576c1.563-0.094 1.701 0.826 0.049 1.62l0.26 0.417c1.086 1.13 0.984 2.26 0.815 5.049v0.919c0 0.288-0.233 0.521-0.521 0.521v0h-2.156c-0.288 0-0.521-0.233-0.521-0.521v0-0.411h-11.305v0.419c0 0.288-0.233 0.521-0.521 0.521v0h-2.161c-0.288 0-0.521-0.233-0.521-0.521v0-1.198c-0.001-0.006-0.001-0.014-0.001-0.021s0-0.015 0.001-0.022l-0 0.001s0-0.026 0-0.039c-0.159-2.141-0.393-4.073 1.289-5.177zM20.385 10.599h-8.802c-0.688 0-1.042 0.602-1.237 1.263l-0.664 3.242h12.974l-0.521-3.253c-0.138-0.674-0.56-1.255-1.24-1.255zM11.216 18.070l-1.935-0.245c-0.456-0.052-0.578 0.138-0.424 0.542l0.211 0.521c0.057 0.124 0.147 0.225 0.258 0.295l0.003 0.002c0.123 0.075 0.273 0.12 0.432 0.12h0l1.727 0.016c0.411 0 0.596-0.172 0.466-0.557-0.072-0.363-0.366-0.64-0.733-0.684l-0.004-0zM21.516 18.75l1.935-0.26c0.458-0.052 0.581 0.138 0.424 0.542l-0.208 0.521c-0.059 0.122-0.148 0.222-0.258 0.293l-0.003 0.002c-0.122 0.075-0.269 0.12-0.427 0.12-0.002 0-0.004 0-0.006-0h0l-1.727 0.016c-0.411 0-0.596-0.169-0.466-0.557 0.075-0.358 0.367-0.631 0.73-0.674l0.004-0z"></path>
<path fill="#d92d27" style="fill: var(--color5, #d92d27)" d="M16 32c0 0 0.001 0 0.001 0 8.818 0 15.966-7.148 15.966-15.966s-7.148-15.966-15.966-15.966c-8.818 0-15.966 7.148-15.966 15.966 0 6.615 4.023 12.291 9.756 14.713l0.105 0.039c1.804 0.767 3.902 1.214 6.105 1.214 0.004 0 0.009 0 0.013 0h-0.001zM26.479 23.438l-17.904-17.917c2.068-1.477 4.647-2.362 7.433-2.362 1.77 0 3.456 0.357 4.991 1.003l-0.085-0.032c3.155 1.338 5.616 3.801 6.919 6.874l0.032 0.085c0.614 1.443 0.971 3.121 0.971 4.883 0 0.010 0 0.020-0 0.030v-0.002c0 0.016 0 0.035 0 0.055 0 2.769-0.883 5.331-2.383 7.421l0.026-0.038zM6.25 7.651l18.099 18.109c-2.225 1.899-5.135 3.054-8.314 3.054-7.093 0-12.844-5.75-12.844-12.844 0-3.182 1.157-6.094 3.074-8.337l-0.015 0.018z"></path>
</symbol>
<symbol id="car-rent-icon" viewBox="0 0 34 32">
<path fill="#1f1f1f" style="fill: var(--color1, #1f1f1f)" d="M2.833 18.074c-3.059-1.554-2.708-3.287 0.365-3.106l0.688 1.29 1.038-3.227c-0.459-0.15-0.869-0.408-1.203-0.741l-0.053-0.058c-0.517-0.544-0.836-1.278-0.836-2.080v-7.125c0-0.833 0.34-1.591 0.889-2.139s1.306-0.889 2.139-0.889h22.512c0.83 0 1.587 0.342 2.135 0.891 0.551 0.546 0.892 1.305 0.892 2.136v7.125c0 0.826-0.342 1.585-0.891 2.133l-0.005 0.006c-0.088 0.087-0.183 0.17-0.281 0.247l0.893 3.583 0.612-1.153c3.16-0.184 3.44 1.651 0.097 3.237l0.544 0.832c2.198 2.26 1.992 4.516 1.649 10.095v1.833c0 0.568-0.465 1.034-1.034 1.034h-4.41c-0.568 0-1.034-0.465-1.034-1.033v-0.831h-20.843v0.83c0 0.568-0.465 1.034-1.034 1.034h-4.41c-0.568 0-1.034-0.465-1.034-1.033v-2.382c0-0.056 0.006-0.109 0.011-0.161-0.334-4.283-0.805-8.143 2.602-10.35zM28.568 13.174c-0.064 0.004-0.13 0.006-0.195 0.006h-21.799l-1.216 4.051h24.186l-0.976-4.057zM8.463 23.152l-3.917-0.493c-0.925-0.103-1.173 0.288-0.858 1.084l0.424 1.028c0.136 0.264 0.317 0.457 0.529 0.59 0.248 0.153 0.546 0.228 0.878 0.242l3.493 0.028c0.844-0.003 1.209-0.34 0.944-1.114-0.217-0.727-0.713-1.184-1.493-1.365zM25.769 23.152l3.917-0.493c0.925-0.103 1.172 0.288 0.858 1.084l-0.423 1.028c-0.136 0.264-0.318 0.457-0.529 0.59-0.248 0.153-0.546 0.228-0.877 0.242l-3.493 0.028c-0.845-0.003-1.209-0.34-0.945-1.114 0.217-0.727 0.713-1.184 1.493-1.365z"></path>
<path fill="#ffcb1e" style="fill: var(--color2, #ffcb1e)" d="M5.86 0.882h22.512c1.181 0 2.145 0.969 2.145 2.145v7.125c0 1.176-0.969 2.145-2.145 2.145h-22.512c-1.176 0-2.145-0.965-2.145-2.145v-7.125c0-1.18 0.965-2.145 2.145-2.145z"></path>
<path fill="#000" style="fill: var(--color3, #000)" d="M12.314 9.175h-1.82l-0.679-1.538h-0.362v1.538h-1.647v-5.169h2.606c1.185 0 1.778 0.604 1.778 1.811 0 0.827-0.257 1.373-0.769 1.638l0.893 1.72zM9.453 5.329v1.034h0.454c0.199 0 0.344-0.021 0.435-0.061s0.136-0.137 0.136-0.285v-0.339c0-0.149-0.046-0.245-0.136-0.285s-0.237-0.062-0.435-0.062h-0.454zM16.326 7.223h-1.655v0.629h2.027v1.323h-3.681v-5.169h3.639l-0.206 1.323h-1.779v0.695h1.655v1.199zM20.561 9.175l-1.265-1.836c-0.045-0.061-0.072-0.193-0.084-0.397h-0.033v2.233h-1.654v-5.169h1.555l1.265 1.836c0.045 0.061 0.072 0.193 0.083 0.397h0.033v-2.233h1.654v5.169h-1.555zM26.75 5.329h-1.199v3.846h-1.654v-3.846h-1.199v-1.323h4.053v1.323z"></path>
</symbol>
<symbol id="rent-a-car-icon" viewBox="0 0 37 32">
<path d="M3.094 16.792c-3.346-1.697-2.957-3.59 0.399-3.392l0.767 1.409 1.521-4.816c0.505-1.576 1.293-3.042 2.686-3.474v-4.825c0.002-0.936 0.761-1.694 1.697-1.694 0.003 0 0.006 0 0.010 0h17.035c0.934 0.003 1.69 0.76 1.691 1.694v4.694h0.304c1.986 0 3.13 1.685 3.611 3.611l1.162 4.67 0.669-1.259c3.45-0.201 3.757 1.804 0.106 3.535l0.608 0.913c2.4 2.467 2.175 4.931 1.801 11.025v2.002c-0.002 0.623-0.506 1.127-1.128 1.129h-4.831c-0.623-0.002-1.127-0.506-1.129-1.128v-0.913h-22.773v0.913c-0.002 0.623-0.506 1.127-1.128 1.129h-4.804c-0.623-0.002-1.127-0.506-1.129-1.128v-2.613c-0.002-0.026-0.002-0.057-0.002-0.088s0.001-0.062 0.003-0.092l-0 0.004c-0.353-4.67-0.867-8.892 2.853-11.301zM27.27 8.275h-17.212c-1.521 0-2.288 1.311-2.738 2.753l-1.469 4.843h26.412l-1.165-4.843c-0.304-1.475-1.238-2.738-2.738-2.738zM14.401 6.346h-1.558l-0.578-1.314h-0.304v1.314h-1.415v-4.417h2.23q1.521 0 1.521 1.548c0 0.706-0.219 1.174-0.657 1.399l0.764 1.469zM11.968 3.060v0.894h0.325c0.016 0.001 0.034 0.001 0.052 0.001 0.114 0 0.224-0.021 0.325-0.058l-0.006 0.002c0.076-0.033 0.116-0.116 0.116-0.243v-0.31c0-0.128-0.040-0.21-0.116-0.243-0.095-0.036-0.204-0.056-0.319-0.056-0.018 0-0.037 0.001-0.055 0.002l0.002-0zM17.854 4.679h-1.427v0.538h1.731v1.129h-3.139v-4.417h3.112l-0.183 1.132h-1.521v0.59h1.415v1.025zM21.505 6.346l-1.083-1.567c-0.044-0.096-0.070-0.208-0.070-0.326 0-0.005 0-0.010 0-0.015v0.001h-0.027v1.907h-1.433v-4.417h1.329l1.074 1.57c0.046 0.096 0.073 0.209 0.073 0.327 0 0.005-0 0.009-0 0.014v-0.001h0.027v-1.91h1.421v4.417zM26.853 3.060h-1.043v3.285h-1.415v-3.285h-1.025v-1.132h3.465v1.132zM9.242 22.338l-4.277-0.538c-1.010-0.113-1.281 0.304-0.937 1.183l0.462 1.123c0.134 0.267 0.331 0.485 0.572 0.641l0.006 0.004c0.275 0.162 0.605 0.26 0.957 0.265h0.001l3.815 0.030c0.913 0 1.32-0.371 1.031-1.217-0.213-0.767-0.839-1.347-1.618-1.489l-0.013-0.002zM28.14 22.338l4.277-0.538c1.010-0.113 1.281 0.304 0.937 1.183l-0.462 1.123c-0.134 0.267-0.331 0.485-0.572 0.641l-0.006 0.004c-0.275 0.162-0.605 0.26-0.957 0.265h-0.001l-3.815 0.030c-0.913 0-1.32-0.371-1.031-1.217 0.213-0.767 0.839-1.347 1.618-1.489l0.013-0.002z"></path>
</symbol>
</defs>
</svg>
