<svg aria-hidden="true" style="position: absolute; width: 0; height: 0; overflow: hidden;" version="1.1" xmlns="http://www.w3.org/2000/svg" xmlns:xlink="http://www.w3.org/1999/xlink">
<defs>
<symbol id="icon-heart-active" viewBox="0 0 32 32">
<path fill="#3470ff" style="fill: var(--color1, #3470ff); stroke: var(--color1, #3470ff)" stroke="#3470ff" stroke-linejoin="round" stroke-linecap="round" stroke-miterlimit="4" stroke-width="1.7778" d="M27.787 6.147c-0.681-0.681-1.49-1.222-2.38-1.591s-1.844-0.559-2.807-0.559c-0.963 0-1.917 0.19-2.807 0.559s-1.698 0.909-2.38 1.591l-1.413 1.413-1.413-1.413c-1.376-1.376-3.241-2.148-5.187-2.148s-3.811 0.773-5.187 2.148c-1.376 1.376-2.148 3.241-2.148 5.187s0.773 3.811 2.148 5.187l11.787 11.787 11.787-11.787c0.681-0.681 1.222-1.49 1.591-2.38s0.559-1.844 0.559-2.807c0-0.963-0.19-1.917-0.559-2.807s-0.909-1.699-1.591-2.38z"></path>
</symbol>
<symbol id="icon-heart-normal" viewBox="0 0 32 32">
<path fill="none" stroke="#fff" style="stroke: var(--color2, #fff)" stroke-linejoin="round" stroke-linecap="round" stroke-miterlimit="4" stroke-width="2.6667" d="M27.787 6.147c-0.681-0.681-1.49-1.222-2.38-1.591s-1.844-0.559-2.807-0.559c-0.963 0-1.917 0.19-2.807 0.559s-1.698 0.909-2.38 1.591l-1.413 1.413-1.413-1.413c-1.376-1.376-3.241-2.148-5.187-2.148s-3.811 0.773-5.187 2.148c-1.376 1.376-2.148 3.241-2.148 5.187s0.773 3.811 2.148 5.187l11.787 11.787 11.787-11.787c0.681-0.681 1.222-1.49 1.591-2.38s0.559-1.844 0.559-2.807c0-0.963-0.19-1.917-0.559-2.807s-0.909-1.699-1.591-2.38z"></path>
</symbol>
<symbol id="no-car-icon" viewBox="0 0 32 32">
<path fill="#fff" style="fill: var(--color4, #fff)" d="M6.25 7.651l18.096 18.109c-2.227 1.906-5.142 3.066-8.327 3.066-7.092 0-12.841-5.749-12.841-12.841 0-3.189 1.162-6.106 3.087-8.352l-0.014 0.017zM26.479 23.438l-17.906-17.917c2.064-1.482 4.641-2.369 7.426-2.369 3.547 0 6.757 1.44 9.079 3.767l0 0c2.324 2.312 3.763 5.512 3.763 9.049 0 0.011 0 0.023-0 0.034v-0.002c0 0.009 0 0.020 0 0.031 0 2.777-0.885 5.347-2.388 7.444l0.026-0.038z"></path>
<path fill="#000" style="fill: var(--color3, #000)" d="M8.435 15.531c-1.513-0.781-1.336-1.646 0.18-1.563l0.346 0.646 0.69-3.24c0.227-0.721 0.583-1.393 1.214-1.591 0-0.063 9.474-0.219 10.396-0.060 0.898 0 1.417 0.781 1.633 1.654l0.521 3.172 0.302-0.576c1.563-0.094 1.701 0.826 0.049 1.62l0.26 0.417c1.086 1.13 0.984 2.26 0.815 5.049v0.919c0 0.288-0.233 0.521-0.521 0.521v0h-2.156c-0.288 0-0.521-0.233-0.521-0.521v0-0.411h-11.305v0.419c0 0.288-0.233 0.521-0.521 0.521v0h-2.161c-0.288 0-0.521-0.233-0.521-0.521v0-1.198c-0.001-0.006-0.001-0.014-0.001-0.021s0-0.015 0.001-0.022l-0 0.001s0-0.026 0-0.039c-0.159-2.141-0.393-4.073 1.289-5.177zM20.385 10.599h-8.802c-0.688 0-1.042 0.602-1.237 1.263l-0.664 3.242h12.974l-0.521-3.253c-0.138-0.674-0.56-1.255-1.24-1.255zM11.216 18.070l-1.935-0.245c-0.456-0.052-0.578 0.138-0.424 0.542l0.211 0.521c0.057 0.124 0.147 0.225 0.258 0.295l0.003 0.002c0.123 0.075 0.273 0.12 0.432 0.12h0l1.727 0.016c0.411 0 0.596-0.172 0.466-0.557-0.072-0.363-0.366-0.64-0.733-0.684l-0.004-0zM21.516 18.75l1.935-0.26c0.458-0.052 0.581 0.138 0.424 0.542l-0.208 0.521c-0.059 0.122-0.148 0.222-0.258 0.293l-0.003 0.002c-0.122 0.075-0.269 0.12-0.427 0.12-0.002 0-0.004 0-0.006-0h0l-1.727 0.016c-0.411 0-0.596-0.169-0.466-0.557 0.075-0.358 0.367-0.631 0.73-0.674l0.004-0z"></path>
<path fill="#d92d27" style="fill: var(--color5, #d92d27)" d="M16 32c0 0 0.001 0 0.001 0 8.818 0 15.966-7.148 15.966-15.966s-7.148-15.966-15.966-15.966c-8.818 0-15.966 7.148-15.966 15.966 0 6.615 4.023 12.291 9.756 14.713l0.105 0.039c1.804 0.767 3.902 1.214 6.105 1.214 0.004 0 0.009 0 0.013 0h-0.001zM26.479 23.438l-17.904-17.917c2.068-1.477 4.647-2.362 7.433-2.362 1.77 0 3.456 0.357 4.991 1.003l-0.085-0.032c3.155 1.338 5.616 3.801 6.919 6.874l0.032 0.085c0.614 1.443 0.971 3.121 0.971 4.883 0 0.010 0 0.020-0 0.030v-0.002c0 0.016 0 0.035 0 0.055 0 2.769-0.883 5.331-2.383 7.421l0.026-0.038zM6.25 7.651l18.099 18.109c-2.225 1.899-5.135 3.054-8.314 3.054-7.093 0-12.844-5.75-12.844-12.844 0-3.182 1.157-6.094 3.074-8.337l-0.015 0.018z"></path>
</symbol>
</defs>
</svg>
